<?xml version="1.0" encoding="UTF-8" standalone="no"?>
<svg width="254px" height="56px" viewBox="0 0 254 56" version="1.1" xmlns="http://www.w3.org/2000/svg" xmlns:xlink="http://www.w3.org/1999/xlink">
    <!-- Generator: Sketch 3.6 (26304) - http://www.bohemiancoding.com/sketch -->
    <title>Group</title>
    <desc>Created with Sketch.</desc>
    <defs></defs>
    <g id="Page-1" stroke="none" stroke-width="1" fill="none" fill-rule="evenodd">
        <g id="logo" transform="translate(-17.000000, -11.000000)">
            <g id="Group">
                <g transform="translate(17.000000, 11.000000)" id="Shape">
                    <g transform="translate(0.000000, 13.000000)" fill="#002776">
                        <path d="M10.867,30.834 C5.738,30.834 1.674,29.65 0.924,29.414 C0.529,29.256 0.332,28.94 0.332,28.586 L0.332,28.389 L0.845,25.784 C0.924,25.39 1.2,25.271 1.515,25.271 C1.594,25.271 1.673,25.271 1.791,25.31 C2.62,25.468 6.644,26.613 10.432,26.613 C13.667,26.613 16.548,25.666 16.548,22.312 C16.548,18.919 13.589,18.564 9.762,18.011 C5.501,17.379 0.016,16.236 0.016,9.528 C0.016,2.624 5.145,0.808 11.221,0.808 C15.838,0.808 19.665,1.913 20.532,2.15 C21.006,2.268 21.243,2.584 21.243,2.979 L21.243,3.176 L20.691,5.74 C20.651,6.016 20.375,6.292 20.06,6.292 C20.02,6.292 19.981,6.253 19.941,6.253 C18.047,5.858 15.127,5.069 11.655,5.069 C8.736,5.069 5.658,5.622 5.658,8.936 C5.658,12.211 8.972,12.685 12.484,13.197 C17.1,13.907 22.348,14.578 22.348,21.917 C22.348,28.822 16.746,30.834 10.867,30.834 L10.867,30.834 Z"></path>
                        <path d="M60.998,30.361 C59.617,30.676 57.723,30.913 55.514,30.913 C51.253,30.913 46.005,30.479 46.005,24.206 C46.005,19.116 49.201,18.564 52.357,18.051 L59.38,16.907 L59.38,15.645 C59.38,14.54 59.261,13.751 58.275,13.317 C57.644,13.041 56.697,12.922 55.277,12.922 C52.594,12.922 49.674,13.711 48.491,14.026 C48.372,14.026 48.294,14.066 48.215,14.066 C48.018,14.066 47.82,13.987 47.781,13.711 L47.229,11.265 L47.229,11.107 C47.229,10.752 47.505,10.594 47.703,10.515 C48.65,10.16 52.28,9.174 56.304,9.174 C59.105,9.174 60.999,9.569 62.262,10.279 C64.274,11.383 64.669,13.238 64.669,15.368 L64.669,26.258 C64.668,29.217 63.681,29.73 60.998,30.361 L60.998,30.361 Z M59.381,20.34 L54.488,21.129 C52.87,21.365 51.371,21.602 51.371,24.166 C51.371,27.244 53.857,27.48 55.751,27.48 C57.29,27.48 58.552,27.205 59.381,26.927 L59.381,20.34 L59.381,20.34 Z"></path>
                        <path d="M78.744,13.237 C76.337,13.237 74.285,13.474 73.181,13.75 L73.181,29.809 C73.181,30.164 72.944,30.401 72.589,30.401 L68.565,30.401 C68.328,30.401 67.894,30.165 67.894,29.809 L67.894,12.764 C67.894,11.225 68.801,10.752 70.695,10.2 C72.431,9.648 75.233,9.253 77.481,9.214 L78.152,9.214 C78.704,9.214 78.704,9.214 78.981,9.332 C79.139,9.411 79.336,9.569 79.336,9.963 L79.336,12.527 C79.336,12.922 79.297,13.237 78.744,13.237 L78.744,13.237 Z"></path>
                        <path d="M99.395,21.563 C99.395,21.997 99.158,22.47 98.566,22.47 L85.349,22.47 C85.349,24.285 85.862,25.272 86.927,26.1 C87.953,26.928 89.452,27.284 91.583,27.284 C94.029,27.284 95.883,26.692 97.106,26.337 C97.185,26.298 97.225,26.298 97.303,26.298 C97.54,26.298 97.737,26.456 97.856,26.851 L98.369,28.863 C98.369,28.902 98.409,28.982 98.409,29.06 C98.409,29.376 98.212,29.534 97.935,29.652 C96.594,30.205 93.91,30.915 90.794,30.915 C83.061,30.915 80.023,27.877 80.023,20.144 C80.023,12.726 82.075,9.175 89.769,9.175 C93.754,9.175 96.2,10.201 97.62,12.095 C98.961,13.87 99.395,16.395 99.395,19.67 L99.395,21.563 L99.395,21.563 Z M93.832,15.684 C93.319,13.514 92.135,12.804 89.808,12.804 C87.164,12.804 86.059,13.593 85.625,15.566 C85.349,16.671 85.349,17.815 85.31,19.117 L94.148,19.077 C94.148,17.815 94.108,16.749 93.832,15.684 L93.832,15.684 Z"></path>
                        <path d="M144.279,30.361 C142.898,30.676 141.004,30.913 138.795,30.913 C134.533,30.913 129.286,30.479 129.286,24.206 C129.286,19.116 132.482,18.564 135.639,18.051 L142.662,16.907 L142.662,15.645 C142.662,14.54 142.543,13.751 141.557,13.317 C140.926,13.041 139.979,12.922 138.559,12.922 C135.875,12.922 132.955,13.711 131.772,14.026 C131.654,14.026 131.575,14.066 131.497,14.066 C131.3,14.066 131.102,13.987 131.062,13.711 L130.51,11.265 L130.51,11.107 C130.51,10.752 130.785,10.594 130.983,10.515 C131.93,10.16 135.56,9.174 139.585,9.174 C142.386,9.174 144.28,9.569 145.543,10.279 C147.556,11.383 147.95,13.238 147.95,15.368 L147.95,26.258 C147.949,29.217 146.962,29.73 144.279,30.361 L144.279,30.361 Z M142.662,20.34 L137.769,21.129 C136.151,21.365 134.652,21.602 134.652,24.166 C134.652,27.244 137.137,27.48 139.031,27.48 C140.57,27.48 141.833,27.205 142.662,26.927 L142.662,20.34 L142.662,20.34 Z"></path>
                        <path d="M169.049,30.401 L164.985,30.401 C164.63,30.401 164.354,30.165 164.354,29.809 L164.354,15.881 C164.354,13.592 163.486,12.803 161.395,12.803 C159.028,12.803 156.463,13.474 156.463,13.474 L156.463,29.808 C156.463,30.163 156.226,30.4 155.871,30.4 L151.846,30.4 C151.451,30.4 151.176,30.164 151.176,29.808 L151.176,12.803 C151.176,11.304 151.925,10.791 154.135,10.199 C156.147,9.647 159.461,9.173 161.987,9.173 C166.919,9.173 169.641,10.436 169.641,15.17 L169.641,29.808 C169.641,30.164 169.404,30.401 169.049,30.401 L169.049,30.401 Z"></path>
                        <path d="M191.928,30.045 C191.928,30.203 191.771,30.4 191.533,30.4 L186.246,30.4 C186.049,30.4 185.851,30.4 185.654,30.164 L179.539,21.838 L178.197,21.838 L178.197,29.809 C178.197,30.164 178,30.401 177.605,30.401 L173.541,30.401 C173.187,30.401 172.909,30.165 172.909,29.809 L172.909,2.229 C172.909,1.756 173.106,1.519 173.581,1.401 L177.446,0.73 L177.604,0.73 C177.959,0.73 178.196,0.967 178.196,1.401 L178.196,18.287 L179.538,18.287 L185.772,9.962 C185.929,9.725 186.088,9.686 186.285,9.686 L191.099,9.804 C191.375,9.804 191.494,10.001 191.494,10.159 C191.494,10.238 191.455,10.278 191.415,10.356 L183.958,19.747 L191.85,29.847 C191.889,29.888 191.928,29.967 191.928,30.045 L191.928,30.045 Z"></path>
                        <path d="M35.739,9.174 C33.095,9.174 30.057,9.608 27.69,10.437 C25.914,10.989 25.204,11.581 25.204,13.633 L25.204,38.056 C25.204,38.451 25.513,38.773 26.082,38.671 C26.651,38.568 29.82,37.983 29.82,37.983 C30.294,37.904 30.491,37.668 30.491,37.194 L30.491,30.315 C31.892,30.656 33.657,30.915 35.62,30.915 C42.959,30.915 44.34,26.299 44.34,20.064 C44.34,13.79 43.354,9.174 35.739,9.174 L35.739,9.174 Z M34.24,27.283 C32.11,27.283 30.492,26.81 30.492,26.81 L30.492,13.514 C30.492,13.514 32.82,12.883 34.635,12.883 C37.634,12.883 38.936,13.553 38.936,19.946 C38.935,25.942 37.83,27.283 34.24,27.283 L34.24,27.283 Z"></path>
                        <path d="M116.736,30.401 L103.597,30.401 C103.242,30.401 102.926,30.125 102.926,29.77 L102.926,1.874 C102.926,1.519 103.241,1.243 103.597,1.243 L116.775,1.243 C123.446,1.243 126.165,3.859 126.165,8.597 C126.165,12.779 123.842,14.276 120.247,15.305 C124.238,15.963 127.152,18.13 127.152,22.785 C127.152,28.072 123.443,30.401 116.736,30.401 L116.736,30.401 Z M116.222,5.307 L108.607,5.307 L108.607,13.75 L115.946,13.435 C118.945,13.317 120.483,12.251 120.483,9.253 C120.484,6.49 119.142,5.307 116.222,5.307 L116.222,5.307 Z M116.025,17.577 L108.608,17.341 L108.608,26.336 L116.025,26.336 C120.01,26.336 121.312,24.601 121.312,22.193 C121.312,18.959 120.247,17.695 116.025,17.577 L116.025,17.577 Z"></path>
                    </g>
                    <g transform="translate(197.000000, 0.000000)">
                        <path d="M28.543,0.35 C25.61,0.35 22.786,0.808 20.132,1.651 C31.301,-0.772 42.371,3.829 46.359,13.252 C50.968,24.144 44.37,37.348 31.622,42.743 C20.186,47.582 7.691,44.49 1.911,35.941 C5.292,47.458 15.932,55.87 28.543,55.87 C43.874,55.87 56.303,43.442 56.303,28.11 C56.303,12.778 43.874,0.35 28.543,0.35 L28.543,0.35 Z" fill="#E60000"></path>
                        <path d="M31.622,42.743 C44.371,37.348 50.969,24.145 46.359,13.252 C42.371,3.828 31.3,-0.772 20.132,1.651 C8.913,5.214 0.783,15.711 0.783,28.11 C0.783,30.83 1.181,33.457 1.911,35.941 C7.691,44.49 20.186,47.582 31.622,42.743 L31.622,42.743 Z" fill="#AF0000"></path>
                        <g transform="translate(17.000000, 11.000000)">
                            <path d="M18.659,29.655 L18.659,1.152 C18.659,0.586 18.197,0.125 17.63,0.125 L11.176,0.125 C10.715,0.125 10.456,0.227 10.044,0.382 L1.716,4.669 C1.203,4.876 0.997,5.183 0.997,5.698 L0.997,10.369 C0.997,10.918 1.442,11.361 1.99,11.361 L7.32,11.361 L7.32,33.77 C9.753,33.432 12.211,32.764 14.622,31.743 C16.047,31.14 17.395,30.439 18.659,29.655 L18.659,29.655 Z" fill="#FFFFFF"></path>
                            <path d="M8.347,38.319 L17.63,38.319 C18.197,38.319 18.659,37.854 18.659,37.29 L18.659,29.655 C17.395,30.439 16.047,31.14 14.622,31.742 C12.211,32.762 9.752,33.43 7.32,33.769 L7.32,37.29 C7.32,37.855 7.784,38.319 8.347,38.319 L8.347,38.319 Z"></path>
                        </g>
                    </g>
                </g>
            </g>
        </g>
    </g>
</svg>